<svg version="1.1" xmlns="http://www.w3.org/2000/svg" xmlns:xlink="http://www.w3.org/1999/xlink" width="530.00001" height="409.99999" viewBox="0,0,530.00001,409.99999"><g transform="translate(25,24.99999)"><g data-paper-data="{&quot;isPaintingLayer&quot;:true}" fill-rule="nonzero" stroke-linejoin="miter" stroke-miterlimit="10" stroke-dasharray="" stroke-dashoffset="0" style="mix-blend-mode: normal"><path d="M0,360c0,0 0,-13.12045 0,-34.20065c0,-76.59504 0,-258.27762 0,-297.48518c0,-14.60805 0,-28.31416 0,-28.31416c0,0 13.03145,0 27.958,0c49.77766,0 327.91466,0 421.39209,0c19.23396,0 30.64992,0 30.64992,0c0,0 0,16.25261 0,32.90852c0,40.8201 0,215.83613 0,291.74223c0,21.73928 0,35.34924 0,35.34924c0,0 -12.6911,0 -27.30554,0c-50.26415,0 -338.61339,0 -426.96605,0c-16.24466,0 -25.7284,0 -25.7284,0z" fill="none" stroke="#212730" stroke-width="50" stroke-linecap="butt"/><path d="M24.71357,334.96876v-58.5h430.57287v58.5z" fill-opacity="0.8" fill="#3a2f3d" stroke="none" stroke-width="0" stroke-linecap="butt"/><path d="M24.76416,333.47917v-56.66667h75.66667v56.66667z" fill="#373737" stroke="#1b2027" stroke-width="6" stroke-linecap="butt"/><path d="M368.91764,285.96876v38.66667" fill="none" stroke-opacity="0.2" stroke="#000000" stroke-width="4" stroke-linecap="round"/><path d="M368.91763,326.0021c-11.43229,0 -20.7,-9.26771 -20.7,-20.7c0,-11.43229 9.26771,-20.7 20.7,-20.7c11.43229,0 20.7,9.26771 20.7,20.7c0,11.43229 -9.26771,20.7 -20.7,20.7z" fill="none" stroke="#878787" stroke-width="2" stroke-linecap="butt"/><g fill="none" stroke="#1b2027" stroke-width="3" stroke-linecap="round"><path d="M398.29264,334.96876v-58"/><path d="M338.54264,334.71876v-58"/><path d="M221.29263,334.3021v-58"/><path d="M161.54263,334.0521v-58"/><path d="M101.29261,275.8021v58"/><path d="M278.2926,334.46876v-58"/></g><path d="M24.71357,334.96876v-58.5h430.57287v58.5z" fill="none" stroke="#1b2027" stroke-width="6" stroke-linecap="butt"/><path d="M291.62223,320.63826c-2.01721,-2.97932 -3.19543,-6.57307 -3.19543,-10.442c0,-10.29897 8.34896,-18.64793 18.64793,-18.64793c10.29897,0 18.64793,8.34896 18.64793,18.64793c0,3.71825 -1.08824,7.18232 -2.96358,10.09111c-0.06061,0.50829 -31.02135,0.73688 -31.13684,0.35089z" fill="none" stroke="#878787" stroke-width="2" stroke-linecap="butt"/><text transform="translate(285.79121,325.52514) scale(0.16483,0.16483)" font-size="40" xml:space="preserve" fill="#91dfff" fill-rule="nonzero" stroke="none" stroke-width="1" stroke-linecap="butt" stroke-linejoin="miter" stroke-miterlimit="10" stroke-dasharray="" stroke-dashoffset="0" font-family="Sans Serif" font-weight="normal" text-anchor="start" style="mix-blend-mode: normal"><tspan x="0" dy="0">0</tspan></text><text transform="translate(323.70147,325.77514) scale(0.16483,0.16483)" font-size="40" xml:space="preserve" fill="#91dfff" fill-rule="nonzero" stroke="none" stroke-width="1" stroke-linecap="butt" stroke-linejoin="miter" stroke-miterlimit="10" stroke-dasharray="" stroke-dashoffset="0" font-family="Sans Serif" font-weight="normal" text-anchor="start" style="mix-blend-mode: normal"><tspan x="0" dy="0">160</tspan></text><text transform="translate(303.3035,289.71572) scale(0.16483,0.16483)" font-size="40" xml:space="preserve" fill="#91dfff" fill-rule="nonzero" stroke="none" stroke-width="1" stroke-linecap="butt" stroke-linejoin="miter" stroke-miterlimit="10" stroke-dasharray="" stroke-dashoffset="0" font-family="Sans Serif" font-weight="normal" text-anchor="start" style="mix-blend-mode: normal"><tspan x="0" dy="0">80</tspan></text><text transform="translate(281.3035,302.96572) scale(0.16483,0.16483)" font-size="40" xml:space="preserve" fill="#91dfff" fill-rule="nonzero" stroke="none" stroke-width="1" stroke-linecap="butt" stroke-linejoin="miter" stroke-miterlimit="10" stroke-dasharray="" stroke-dashoffset="0" font-family="Sans Serif" font-weight="normal" text-anchor="start" style="mix-blend-mode: normal"><tspan x="0" dy="0">40</tspan></text><text transform="translate(324.45147,301.46572) scale(0.16483,0.16483)" font-size="40" xml:space="preserve" fill="#91dfff" fill-rule="nonzero" stroke="none" stroke-width="1" stroke-linecap="butt" stroke-linejoin="miter" stroke-miterlimit="10" stroke-dasharray="" stroke-dashoffset="0" font-family="Sans Serif" font-weight="normal" text-anchor="start" style="mix-blend-mode: normal"><tspan x="0" dy="0">120</tspan></text><path d="M292.19811,320.49598l14.77273,-10.72727l15.18182,10.36363" fill="none" stroke="#878787" stroke-width="2" stroke-linecap="round"/><text transform="translate(282.18904,314.53803) scale(0.08242,0.08242)" font-size="40" xml:space="preserve" fill-opacity="0.54902" fill="#58cbfc" fill-rule="nonzero" stroke="none" stroke-width="1" stroke-linecap="butt" stroke-linejoin="miter" stroke-miterlimit="10" stroke-dasharray="" stroke-dashoffset="0" font-family="Sans Serif" font-weight="normal" text-anchor="start" style="mix-blend-mode: normal"><tspan x="0" dy="0">20</tspan></text><text transform="translate(291.60582,292.78737) scale(0.08242,0.08242)" font-size="40" xml:space="preserve" fill-opacity="0.54902" fill="#58cbfc" fill-rule="nonzero" stroke="none" stroke-width="1" stroke-linecap="butt" stroke-linejoin="miter" stroke-miterlimit="10" stroke-dasharray="" stroke-dashoffset="0" font-family="Sans Serif" font-weight="normal" text-anchor="start" style="mix-blend-mode: normal"><tspan x="0" dy="0">60</tspan></text><text transform="translate(317.3558,292.78731) scale(0.08242,0.08242)" font-size="40" xml:space="preserve" fill-opacity="0.54902" fill="#58cbfc" fill-rule="nonzero" stroke="none" stroke-width="1" stroke-linecap="butt" stroke-linejoin="miter" stroke-miterlimit="10" stroke-dasharray="" stroke-dashoffset="0" font-family="Sans Serif" font-weight="normal" text-anchor="start" style="mix-blend-mode: normal"><tspan x="0" dy="0">100</tspan></text><text transform="translate(328.52978,312.37064) scale(0.08242,0.08242)" font-size="40" xml:space="preserve" fill-opacity="0.54902" fill="#58cbfc" fill-rule="nonzero" stroke="none" stroke-width="1" stroke-linecap="butt" stroke-linejoin="miter" stroke-miterlimit="10" stroke-dasharray="" stroke-dashoffset="0" font-family="Sans Serif" font-weight="normal" text-anchor="start" style="mix-blend-mode: normal"><tspan x="0" dy="0">140</tspan></text></g></g></svg>